# File created by Blade
# Date/Time:  Wed Apr 08 17:24:25 2015
#---------------------------------------------------------
:version 1.10
:name HOM
:units
  mass 1.0
  length 1.000000
  angle deg
:documentation
     Acclaim Skeleton File
:root
   axis xyz
   order TX TY TZ RX RY RZ
   position 0.000000 0.000000 0.000000
   orientation 0 0 0
:bonedata
   begin
      id 1
      name Spine_dum
      direction 0.000000 1.000000 0.000000
      length 5.893853
      axis 0.0 0.0 0.0 xyz
   end
   begin
      id 2
      name LeftUpLeg_dum
      direction 1.000000 0.000000 0.000000
      length 3.697939
      axis 0.0 0.0 0.0 xyz
   end
   begin
      id 3
      name RightUpLeg_dum
      direction -1.000000 0.000000 0.000000
      length 3.697939
      axis 0.0 0.0 0.0 xyz
   end
   begin
      id 4
      name Spine
      direction 0.000000 1.000000 0.000000
      length 0.000000
      axis 0.0 0.0 0.0 xyz
      dof rx ry rz
   end
   begin
      id 5
      name Spine_dum1
      direction 0.000000 1.000000 0.000000
      length 16.447146
      axis 0.0 0.0 0.0 xyz
   end
   begin
      id 6
      name Spine_dum2
      direction 0.000000 1.000000 0.000000
      length 10.900383
      axis 0.0 0.0 0.0 xyz
   end
   begin
      id 7
      name Spine_dum3
      direction 0.000000 1.000000 0.000000
      length 10.900383
      axis 0.0 0.0 0.0 xyz
   end
   begin
      id 8
      name Head
      direction 0.000000 1.000000 0.000000
      length 4.527550
      axis 0.0 0.0 0.0 xyz
      dof rx ry rz
   end
   begin
      id 9
      name LeftShoulder
      direction 1.000000 0.000000 0.000000
      length 8.219464
      axis 0.0 0.0 -90.0 xyz
      dof rx ry rz
   end
   begin
      id 10
      name LeftArm
      direction 1.000000 0.000000 0.000000
      length 11.094937
      axis 0.0 0.0 -90.0 xyz
      dof rx ry rz
   end
   begin
      id 11
      name LeftForeArm
      direction 1.000000 0.000000 0.000000
      length 9.103875
      axis 0.0 0.0 -90.0 xyz
      dof ry rz rx
   end
   begin
      id 12
      name LeftHand
      direction 0.000000 0.000000 0.000000
      length 0.000000
      axis 0.0 0.0 -90.0 xyz
      dof rx ry rz
   end
   begin
      id 13
      name LeftHand_dum1
      direction 0.000000 0.000000 0.000000
      length 0.000000
      axis 0.0 0.0 -90.0 xyz
   end
   begin
      id 14
      name LeftHand_dum2
      direction 1.000000 0.000000 0.000000
      length 3.937000
      axis 0.0 0.0 -90.0 xyz
   end
   begin
      id 15
      name LeftHandThumb1
      direction 0.000000 0.000000 1.000000
      length 3.937000
      axis 0.0 0.0 -90.0 xyz
      dof rx rz ry
   end
   begin
      id 16
      name RightShoulder
      direction -1.000000 0.000000 0.000000
      length 8.219464
      axis 0.0 0.0 90.0 xyz
      dof rx ry rz
   end
   begin
      id 17
      name RightArm
      direction -1.000000 0.000000 0.000000
      length 11.094937
      axis 0.0 0.0 90.0 xyz
      dof rx ry rz
   end
   begin
      id 18
      name RightForeArm
      direction -1.000000 0.000000 0.000000
      length 9.103875
      axis 0.0 0.0 90.0 xyz
      dof ry rz rx
   end
   begin
      id 19
      name RightHand
      direction 0.000000 0.000000 0.000000
      length 0.000000
      axis 0.0 0.0 90.0 xyz
      dof rx ry rz
   end
   begin
      id 20
      name RightHand_dum1
      direction 0.000000 0.000000 0.000000
      length 0.000000
      axis 0.0 0.0 90.0 xyz
   end
   begin
      id 21
      name RightHand_dum2
      direction -1.000000 0.000000 0.000000
      length 3.937000
      axis 0.0 0.0 90.0 xyz
   end
   begin
      id 22
      name RightHandThumb1
      direction 0.000000 0.000000 1.000000
      length 3.937000
      axis 0.0 0.0 90.0 xyz
      dof rx rz ry
   end
   begin
      id 23
      name LeftUpLeg
      direction 0.000000 -1.000000 0.000000
      length 16.181467
      axis 0.0 0.0 0.0 xyz
      dof rx ry rz
   end
   begin
      id 24
      name LeftLeg
      direction 0.000000 -1.000000 0.000000
      length 16.501392
      axis 0.0 0.0 0.0 xyz
      dof rx ry rz
   end
   begin
      id 25
      name LeftFoot
      direction 0.000000 -0.258819 0.965926
      length 6.408245
      axis 15.0 0.0 0.0 xyz
      dof rx ry rz
   end
   begin
      id 26
      name LeftToeBase
      direction 0.000000 0.000000 1.000000
      length 2.952750
      axis 0.0 0.0 0.0 xyz
      dof rx ry rz
   end
   begin
      id 27
      name RightUpLeg
      direction 0.000000 -1.000000 0.000000
      length 16.181467
      axis 0.0 0.0 0.0 xyz
      dof rx ry rz
   end
   begin
      id 28
      name RightLeg
      direction 0.000000 -1.000000 0.000000
      length 16.501392
      axis 0.0 0.0 0.0 xyz
      dof rx ry rz
   end
   begin
      id 29
      name RightFoot
      direction 0.000000 -0.258819 0.965926
      length 6.408245
      axis 15.0 0.0 0.0 xyz
      dof rx ry rz
   end
   begin
      id 30
      name RightToeBase
      direction 0.000000 0.000000 1.000000
      length 2.952750
      axis 0.0 0.0 0.0 xyz
      dof rx ry rz
   end
:hierarchy
   begin
      root Spine_dum LeftUpLeg_dum RightUpLeg_dum
      Spine_dum Spine
      LeftUpLeg_dum LeftUpLeg
      RightUpLeg_dum RightUpLeg
      Spine Spine_dum1 Spine_dum2 Spine_dum3
      Spine_dum1 Head
      Spine_dum2 LeftShoulder
      Spine_dum3 RightShoulder
      LeftShoulder LeftArm
      LeftArm LeftForeArm
      LeftForeArm LeftHand
      LeftHand LeftHand_dum1 LeftHand_dum2
      LeftHand_dum1 LeftHandThumb1
      RightShoulder RightArm
      RightArm RightForeArm
      RightForeArm RightHand
      RightHand RightHand_dum1 RightHand_dum2
      RightHand_dum1 RightHandThumb1
      LeftUpLeg LeftLeg
      LeftLeg LeftFoot
      LeftFoot LeftToeBase
      RightUpLeg RightLeg
      RightLeg RightFoot
      RightFoot RightToeBase
   end

# File created by Blade
# Date/Time:  Wed Apr 08 17:24:36 2015
# Frame Rate: 120.000 fps
#------------------------------------------------------
:FULLY-SPECIFIED
:DEGREES
369
root 6.685855 36.335905 2.800829 -30.669105 -32.038973 -11.925476
Spine 46.577148 -6.985456 9.671194
Head -8.736255 33.254742 -2.874690
LeftShoulder 7.316747 9.081689 19.819876
LeftArm 53.805772 39.395106 -63.168418
LeftForeArm -13.018898 -0.000000 48.012414
LeftHand -14.426783 0.000000 -8.476597
LeftHandThumb1 -26.253704 0.000000 33.147579
RightShoulder -13.834019 -41.014851 -0.027165
RightArm 75.411627 -8.886530 38.779352
RightForeArm 43.828910 -0.000000 53.287161
RightHand -0.333626 -0.000000 18.355197
RightHandThumb1 -24.326973 -0.000000 -32.862282
LeftUpLeg 32.605796 11.719548 15.472699
LeftLeg 23.497760 -0.000000 -0.000000
LeftFoot -18.559646 -5.206199 2.237389
LeftToeBase 5.682946 -0.000000 -0.000000
RightUpLeg -87.025313 -1.471562 32.151446
RightLeg 150.481576 -0.000000 -0.000000
RightFoot 4.776928 -5.132270 18.738226
RightToeBase -4.625484 -0.000000 0.000000
370
root 6.686692 36.336513 2.805504 -30.717044 -31.922236 -11.883392
Spine 46.582946 -7.013317 9.687414
Head -8.759668 33.220896 -2.907072
LeftShoulder 7.299492 9.121568 19.789217
LeftArm 53.900675 39.428849 -63.055764
LeftForeArm -13.353470 -0.000000 47.886478
LeftHand -14.436297 -0.000000 -8.802021
LeftHandThumb1 -26.253704 0.000000 33.147579
RightShoulder -13.901078 -40.952242 0.032387
RightArm 75.531822 -8.929785 38.698412
RightForeArm 43.797205 0.000000 53.124168
RightHand -0.298281 -0.000000 18.383043
RightHandThumb1 -24.326973 -0.000000 -32.862282
LeftUpLeg 32.619876 11.589223 15.317677
LeftLeg 23.446079 -0.000000 -0.000000
LeftFoot -18.528634 -5.106634 2.285894
LeftToeBase 5.662323 -0.000000 -0.000000
RightUpLeg -86.916400 -1.413696 32.132079
RightLeg 150.474056 -0.000000 -0.000000
RightFoot 4.639198 -5.033069 18.645924
RightToeBase -4.718091 -0.000000 0.000000
371
root 6.686797 36.339053 2.813335 -30.794217 -31.804907 -11.847221
Spine 46.614832 -7.064817 9.697411
Head -8.763608 33.177184 -2.936555
LeftShoulder 7.241490 9.150442 19.729715
LeftArm 54.032365 39.464484 -62.903966
LeftForeArm -13.322884 -0.000000 47.764866
LeftHand -14.458738 0.000000 -8.507157
LeftHandThumb1 -26.253704 0.000000 33.147579
RightShoulder -13.921714 -40.898519 0.073881
RightArm 75.649072 -8.926074 38.662375
RightForeArm 43.668540 0.000000 52.952347
RightHand -0.501455 -0.000000 18.589761
RightHandThumb1 -24.326973 -0.000000 -32.862282
LeftUpLeg 32.681101 11.479360 15.205254
LeftLeg 23.383215 -0.000000 -0.000000
LeftFoot -18.491060 -5.050417 2.346435
LeftToeBase 5.635612 -0.000000 -0.000000
RightUpLeg -86.775479 -1.375164 32.091891
RightLeg 150.488240 -0.000000 -0.000000
RightFoot 4.462915 -4.935011 18.507590
RightToeBase -4.761367 -0.000000 0.000000
372
root 6.685716 36.343021 2.821161 -30.913182 -31.689367 -11.816967
Spine 46.691813 -7.107716 9.707066
Head -8.752416 33.116607 -2.915803
LeftShoulder 7.196260 9.111705 19.701115
LeftArm 54.171490 39.535827 -62.726068
LeftForeArm -13.495083 -0.000000 47.608434
LeftHand -14.430462 -0.000000 -8.452264
LeftHandThumb1 -26.253704 0.000000 33.147579
RightShoulder -13.923379 -40.856921 0.089901
RightArm 75.689483 -8.939768 38.613021
RightForeArm 43.639269 -0.000000 52.895738
RightHand -0.530918 -0.000000 18.570213
RightHandThumb1 -24.326973 -0.000000 -32.862282
LeftUpLeg 32.789555 11.374200 15.131503
LeftLeg 23.320815 -0.000000 -0.000000
LeftFoot -18.439258 -5.022165 2.411405
LeftToeBase 5.560584 -0.000000 -0.000000
RightUpLeg -86.598310 -1.382893 32.055953
RightLeg 150.505331 -0.000000 -0.000000
RightFoot 4.272320 -4.912181 18.385720
RightToeBase -4.797494 -0.000000 0.000000
373
root 6.686300 36.345192 2.828959 -31.001755 -31.561254 -11.775570
Spine 46.712614 -7.128723 9.728645
Head -8.692333 33.005253 -2.866493
LeftShoulder 7.207846 9.059710 19.686606
LeftArm 54.262145 39.593304 -62.592879
LeftForeArm -13.762334 -0.000000 47.457555
LeftHand -14.385043 -0.000000 -8.969261
LeftHandThumb1 -26.253704 0.000000 33.147579
RightShoulder -13.933501 -40.860855 0.120938
RightArm 75.682820 -8.926735 38.579084
RightForeArm 43.660618 -0.000000 52.901903
RightHand -0.537842 -0.000000 18.390113
RightHandThumb1 -24.326973 -0.000000 -32.862282
LeftUpLeg 32.845394 11.297985 15.060132
LeftLeg 23.292079 -0.000000 -0.000000
LeftFoot -18.400466 -5.047377 2.461118
LeftToeBase 5.522875 -0.000000 -0.000000
RightUpLeg -86.459569 -1.362219 31.981969
RightLeg 150.527380 -0.000000 -0.000000
RightFoot 4.105239 -4.927212 18.334472
RightToeBase -4.793140 -0.000000 0.000000
374
root 6.686180 36.346549 2.834851 -31.080526 -31.412729 -11.723047
Spine 46.706439 -7.140506 9.718074
Head -8.594437 32.862570 -2.753103
LeftShoulder 7.262548 9.001153 19.716338
LeftArm 54.209687 39.630030 -62.639405
LeftForeArm -13.876020 -0.000000 47.353345
LeftHand -14.381889 -0.000000 -9.049644
LeftHandThumb1 -26.253704 0.000000 33.147579
RightShoulder -13.943436 -40.873508 0.143250
RightArm 75.711811 -8.937867 38.583104
RightForeArm 43.681924 -0.000000 52.824685
RightHand -0.603091 -0.000000 18.414286
RightHandThumb1 -24.326973 -0.000000 -32.862282
LeftUpLeg 32.867997 11.224933 14.975573
LeftLeg 23.283529 -0.000000 -0.000000
LeftFoot -18.356981 -5.071260 2.509324
LeftToeBase 5.453747 -0.000000 -0.000000
RightUpLeg -86.358492 -1.353144 31.900578
RightLeg 150.540819 -0.000000 -0.000000
RightFoot 4.008412 -5.010256 18.298517
RightToeBase -4.814418 -0.000000 0.000000
375
root 6.688344 36.346554 2.841431 -31.141220 -31.247490 -11.667572
Spine 46.671882 -7.175433 9.690708
Head -8.471781 32.720232 -2.628134
LeftShoulder 7.339471 8.980139 19.745226
LeftArm 54.031118 39.613052 -62.833706
LeftForeArm -13.764728 -0.000000 47.323400
LeftHand -14.372357 0.000000 -8.487592
LeftHandThumb1 -26.253704 0.000000 33.147579
RightShoulder -13.954454 -40.888826 0.156652
RightArm 75.772749 -8.957376 38.561467
RightForeArm 43.691239 -0.000000 52.693959
RightHand -0.672302 -0.000000 18.454104
RightHandThumb1 -24.326973 -0.000000 -32.862282
LeftUpLeg 32.859999 11.139997 14.869221
LeftLeg 23.287917 -0.000000 -0.000000
LeftFoot -18.332494 -5.103729 2.547811
LeftToeBase 5.445980 -0.000000 -0.000000
RightUpLeg -86.298007 -1.352175 31.790453
RightLeg 150.549831 -0.000000 -0.000000
RightFoot 3.964022 -5.093214 18.259583
RightToeBase -4.748583 -0.000000 0.000000
